<svg xmlns="http://www.w3.org/2000/svg" width="700" height="700" xml:space="preserve"><path style="stroke:#bfdbd2;stroke-width:0;stroke-dasharray:none;stroke-linecap:butt;stroke-dashoffset:0;stroke-linejoin:miter;stroke-miterlimit:4;fill:#fff;fill-rule:nonzero;opacity:1" vector-effect="non-scaling-stroke" transform="matrix(6.99 0 0 -6.99 350 350)" d="M-50-36.984C-50-44.173-44.173-50-36.984-50h73.968C44.173-50 50-44.173 50-36.984v73.968C50 44.173 44.173 50 36.984 50h-73.968C-44.173 50-50 44.173-50 36.984z"/><path d="M255.653 60.6c-24.687 6.904-41.886 28.548-44.694 56.16-.936 10.296-.936 406.107.117 414.063 7.722 61.191 59.085 108.46 119.34 110.097 8.892.234 9.01.234 13.104-3.86 3.627-3.628 4.095-4.798 3.627-8.542-.35-2.457-.936-5.265-1.287-6.318-1.52-3.627-7.605-5.85-16.848-6.318-39.078-2.106-75.114-29.25-87.984-66.221-4.446-12.988-5.499-22.114-5.733-48.438l-.234-25.156 3.978-6.786c3.276-5.265 20.943-35.919 37.09-63.999 28.43-49.724 29.483-51.362 36.971-58.733 14.625-14.157 35.802-14.625 50.076-1.17 7.722 7.37 10.53 13.688 10.881 24.335.234 8.19-1.404 17.2-3.51 19.305-.468.468-.819 1.522-.819 2.34 0 1.404-28.548 51.949-32.76 57.798-1.755 2.692-1.989 5.617-1.872 24.57.117 14.274.702 22.464 1.521 24.103 1.404 2.457 8.073 6.317 10.881 6.317.82 0 3.16-.819 5.382-1.872 6.201-2.925 7.254-6.786 7.02-25.74l-.117-16.263 12.168-21.06c20.826-36.036 24.453-43.757 26.56-56.745 2.105-12.752.233-26.442-5.383-38.258-7.956-17.082-29.133-31.707-48.32-33.58-3.16-.233-5.968-.818-6.436-1.286-1.404-1.404 5.967-13.572 10.647-17.55 7.605-6.553 12.051-8.073 22.464-8.073 11.466 0 14.742.818 21.294 5.264 6.903 4.798 11.583 11.584 14.508 20.944 1.99 6.786 2.34 11.466 2.574 34.983l.234 27.26 3.276 2.809c6.318 5.382 14.274 4.913 18.837-1.053 2.34-3.16 2.457-4.914 2.691-28.08.117-13.69.468-27.378.936-30.537 2.223-16.965 11.934-29.017 26.676-32.76 16.03-4.095 31.941 2.34 40.014 16.263 6.084 10.413 6.67 14.508 7.02 43.758.351 29.484.82 31.707 6.67 34.749 5.498 2.808 10.061 2.106 14.507-2.34l3.978-3.978.117-124.488c0-68.328.351-126.01.585-127.881 2.574-16.848 12.636-29.835 26.442-33.93 9.711-2.808 25.038-.468 30.771 4.797 1.521 1.404 3.042 2.34 3.276 2.106.82-.936 8.775 11.583 10.998 17.082 1.99 4.914 2.106 16.965 2.34 211.185.234 216.8.351 213.408-4.914 228.15-8.19 23.4-24.453 42.939-45.396 54.873-14.04 7.956-26.793 11.7-44.694 13.104-9.009.702-12.519 2.106-14.976 6.2-3.276 5.5-2.574 10.297 2.106 14.976l4.212 4.213 11.934-.702c32.41-2.106 62.595-16.497 84.24-40.365 2.691-2.925 6.084-6.67 7.488-8.073 1.404-1.521 2.34-2.691 1.99-2.691-.352 0 .935-2.223 2.807-5.031 8.424-12.285 15.678-30.42 18.603-46.918 1.638-9.593 1.872-31.94 1.872-215.396 0-189.072-.117-205.452-1.989-213.408-7.488-32.526-31.94-51.831-63.297-50.076-23.4 1.287-41.418 13.22-51.48 34.164-7.839 16.263-7.839 16.263-7.956 100.269-.117 52.65-.468 75.465-1.287 74.997-.702-.468-3.393-2.106-5.967-3.861-8.19-5.382-17.199-7.488-31.59-7.371-18.486.116-29.952 4.797-42.237 17.316l-7.254 7.37-4.914-5.147c-13.923-14.625-32.877-20.71-54.99-17.55-5.499.702-17.55 5.499-22.113 8.775-1.872 1.404-3.627 2.457-3.86 2.457-.235 0-.469-34.047-.469-75.816-.117-84.708-.117-84.357-8.424-102.024-4.68-9.828-16.029-22.113-24.804-26.793-12.636-6.67-32.292-8.775-46.215-4.914zm31.824 25.974c7.371 3.628 12.285 8.073 15.912 14.86 6.786 12.518 6.552 9.125 6.67 117v99.098l-3.745 2.34c-5.85 3.393-16.848 14.274-21.294 20.943-2.223 3.394-11.7 19.422-21.177 35.803-9.477 16.38-19.656 34.047-22.698 39.195l-5.382 9.36-.35-11.7c-.118-6.436-.118-76.519 0-155.61.35-134.785.467-144.262 2.456-149.175 3.042-7.606 8.541-15.328 13.69-18.955 9.242-6.786 25.622-8.19 35.918-3.159z"/></svg>
