<svg version="1" xmlns="http://www.w3.org/2000/svg" width="682.667" height="682.667" viewBox="0 0 512.000000 512.000000"><path d="M113.5 8.9c-21.1 5.9-35.8 24.4-38.2 48-.8 8.8-.8 347.1.1 353.9 6.6 52.3 50.5 92.7 102 94.1 7.6.2 7.7.2 11.2-3.3 3.1-3.1 3.5-4.1 3.1-7.3-.3-2.1-.8-4.5-1.1-5.4-1.3-3.1-6.5-5-14.4-5.4-33.4-1.8-64.2-25-75.2-56.6-3.8-11.1-4.7-18.9-4.9-41.4l-.2-21.5 3.4-5.8c2.8-4.5 17.9-30.7 31.7-54.7 24.3-42.5 25.2-43.9 31.6-50.2 12.5-12.1 30.6-12.5 42.8-1 6.6 6.3 9 11.7 9.3 20.8.2 7-1.2 14.7-3 16.5-.4.4-.7 1.3-.7 2 0 1.2-24.4 44.4-28 49.4-1.5 2.3-1.7 4.8-1.6 21 .1 12.2.6 19.2 1.3 20.6 1.2 2.1 6.9 5.4 9.3 5.4.7 0 2.7-.7 4.6-1.6 5.3-2.5 6.2-5.8 6-22l-.1-13.9 10.4-18c17.8-30.8 20.9-37.4 22.7-48.5 1.8-10.9.2-22.6-4.6-32.7-6.8-14.6-24.9-27.1-41.3-28.7-2.7-.2-5.1-.7-5.5-1.1-1.2-1.2 5.1-11.6 9.1-15 6.5-5.6 10.3-6.9 19.2-6.9 9.8 0 12.6.7 18.2 4.5 5.9 4.1 9.9 9.9 12.4 17.9 1.7 5.8 2 9.8 2.2 29.9l.2 23.3 2.8 2.4c5.4 4.6 12.2 4.2 16.1-.9 2-2.7 2.1-4.2 2.3-24 .1-11.7.4-23.4.8-26.1 1.9-14.5 10.2-24.8 22.8-28 13.7-3.5 27.3 2 34.2 13.9 5.2 8.9 5.7 12.4 6 37.4.3 25.2.7 27.1 5.7 29.7 4.7 2.4 8.6 1.8 12.4-2l3.4-3.4.1-106.4c0-58.4.3-107.7.5-109.3 2.2-14.4 10.8-25.5 22.6-29 8.3-2.4 21.4-.4 26.3 4.1 1.3 1.2 2.6 2 2.8 1.8.7-.8 7.5 9.9 9.4 14.6 1.7 4.2 1.8 14.5 2 180.5.2 185.3.3 182.4-4.2 195-7 20-20.9 36.7-38.8 46.9-12 6.8-22.9 10-38.2 11.2-7.7.6-10.7 1.8-12.8 5.3-2.8 4.7-2.2 8.8 1.8 12.8l3.6 3.6 10.2-.6c27.7-1.8 53.5-14.1 72-34.5 2.3-2.5 5.2-5.7 6.4-6.9 1.2-1.3 2-2.3 1.7-2.3-.3 0 .8-1.9 2.4-4.3 7.2-10.5 13.4-26 15.9-40.1 1.4-8.2 1.6-27.3 1.6-184.1 0-161.6-.1-175.6-1.7-182.4-6.4-27.8-27.3-44.3-54.1-42.8-20 1.1-35.4 11.3-44 29.2-6.7 13.9-6.7 13.9-6.8 85.7-.1 45-.4 64.5-1.1 64.1-.6-.4-2.9-1.8-5.1-3.3-7-4.6-14.7-6.4-27-6.3-15.8.1-25.6 4.1-36.1 14.8l-6.2 6.3-4.2-4.4c-11.9-12.5-28.1-17.7-47-15-4.7.6-15 4.7-18.9 7.5-1.6 1.2-3.1 2.1-3.3 2.1-.2 0-.4-29.1-.4-64.8-.1-72.4-.1-72.1-7.2-87.2-4-8.4-13.7-18.9-21.2-22.9-10.8-5.7-27.6-7.5-39.5-4.2zm27.2 22.2c6.3 3.1 10.5 6.9 13.6 12.7 5.8 10.7 5.6 7.8 5.7 100v84.7l-3.2 2c-5 2.9-14.4 12.2-18.2 17.9-1.9 2.9-10 16.6-18.1 30.6-8.1 14-16.8 29.1-19.4 33.5l-4.6 8-.3-10c-.1-5.5-.1-65.4 0-133 .3-115.2.4-123.3 2.1-127.5 2.6-6.5 7.3-13.1 11.7-16.2 7.9-5.8 21.9-7 30.7-2.7z"/></svg>
